<svg width="1500" height="1500" version="1.1" xmlns="http://www.w3.org/2000/svg" desc="Created with imagetracer.js version 1.2.6" ><path fill="rgb(17,87,143)" stroke="rgb(17,87,143)" stroke-width="1" opacity="0.9529411764705882" d="M 679.5 427 Q 685.5 425.5 687 428.5 L 689 434.5 L 689 456.5 L 688 457.5 L 688 512.5 L 685.5 517 L 681.5 518 L 677 514.5 L 676 470.5 L 677 469.5 L 677 445.5 L 676 444.5 L 676 435.5 L 677 430.5 L 679.5 427 Z " /><path fill="rgb(17,87,143)" stroke="rgb(17,87,143)" stroke-width="1" opacity="0.9529411764705882" d="M 781.5 448 Q 788.2 446.3 790 449.5 L 791 454.5 L 791 472.5 L 788.5 478 Q 782.5 479.5 781 476.5 L 780 465.5 L 779 464.5 L 779 450.5 L 781.5 448 Z " /><path fill="rgb(17,87,143)" stroke="rgb(17,87,143)" stroke-width="1" opacity="0.9529411764705882" d="M 604.5 449 Q 609.3 448.3 610 451.5 L 610 494.5 L 608.5 496 Q 602.4 496.8 600 495 L 599 491.5 L 599 456.5 L 600 452.5 L 602.5 450 L 604.5 449 Z " /><path fill="rgb(17,87,143)" stroke="rgb(17,87,143)" stroke-width="1" opacity="0.9529411764705882" d="M 707.5 451 Q 713 450 714 453.5 L 715 493.5 L 714 494.5 L 714 516.5 L 712.5 518 L 706.5 519 L 703 516.5 L 703 454.5 L 705.5 452 L 707.5 451 Z " /><path fill="rgb(17,87,143)" stroke="rgb(17,87,143)" stroke-width="1" opacity="0.9529411764705882" d="M 655.5 455 L 660 458.5 L 657.5 463 L 652.5 464 Q 650 463 651 458.5 L 655.5 455 Z " /><path fill="rgb(17,87,143)" stroke="rgb(17,87,143)" stroke-width="1" opacity="0.9529411764705882" d="M 758.5 456 L 764 459.5 L 763 466 L 755.5 466 L 754 464.5 L 753 459.5 L 758.5 456 Z " /><path fill="rgb(17,87,143)" stroke="rgb(17,87,143)" stroke-width="1" opacity="0.9529411764705882" d="M 653.5 472 Q 659 471 660 474.5 L 661 478.5 L 661 505.5 L 660 506.5 L 660 514.5 L 657.5 517 Q 651.3 517.7 650 513.5 L 650 475.5 L 653.5 472 Z " /><path fill="rgb(17,87,143)" stroke="rgb(17,87,143)" stroke-width="1" opacity="0.9529411764705882" d="M 732.5 474 L 738 476.5 L 740 485.5 L 740 502.5 L 739 503.5 L 739 518.5 L 736.5 521 Q 729.5 522.5 728 518.5 L 728 477.5 L 730.5 475 L 732.5 474 Z " /><path fill="rgb(17,87,143)" stroke="rgb(17,87,143)" stroke-width="1" opacity="0.9529411764705882" d="M 757.5 483 L 763 485.5 L 764 487.5 L 764 501.5 L 765 502.5 L 765 516.5 Q 762.5 518 764 523.5 L 761.5 527 Q 755.7 527.8 754 524.5 L 754 486.5 L 757.5 483 Z " /><path fill="rgb(17,87,143)" stroke="rgb(17,87,143)" stroke-width="1" opacity="0.9529411764705882" d="M 783.5 483 Q 788 482 789 484.5 L 790 488.5 L 786.5 493 L 781 492 L 781 484.5 L 782.5 484 L 783.5 483 Z " /><path fill="rgb(17,87,143)" stroke="rgb(17,87,143)" stroke-width="1" opacity="0.9529411764705882" d="M 628.5 485 Q 633.9 483.1 633 486.5 L 634 487.5 L 634 497.5 L 635 498.5 L 635 518.5 Q 633.5 522.5 626.5 521 L 624 517.5 L 624 489.5 L 626.5 486 L 628.5 485 Z " /><path fill="rgb(17,87,143)" stroke="rgb(17,87,143)" stroke-width="1" opacity="0.9529411764705882" d="M 577.5 486 Q 583 485 584 488.5 L 586 503.5 L 585 504.5 L 585 530.5 L 581.5 536 Q 576.3 537.3 575 534.5 L 574 532.5 L 574 504.5 Q 571.3 502.7 573 496.5 Q 575.8 494.8 574 488.5 L 575.5 487 L 577.5 486 Z " /><path fill="rgb(17,87,143)" stroke="rgb(17,87,143)" stroke-width="1" opacity="0.9529411764705882" d="M 783.5 499 Q 789 498 790 501.5 L 790 531.5 L 787.5 535 Q 781.3 535.7 780 531.5 L 780 503.5 L 783.5 499 Z " /><path fill="rgb(17,87,143)" stroke="rgb(17,87,143)" stroke-width="1" opacity="0.9529411764705882" d="M 602.5 502 Q 607 501 608 503.5 L 610 513.5 L 610 524.5 L 609 527 L 602.5 528 L 599 524.5 L 599 505.5 L 600 503 L 602.5 502 Z " /><path fill="rgb(17,87,143)" stroke="rgb(17,87,143)" stroke-width="1" opacity="0.9529411764705882" d="M 807.5 511 Q 813.5 509.5 815 512.5 L 815 539.5 L 811.5 545 Q 806.5 545.5 806 541.5 L 805 538.5 L 805 522.5 L 806 521.5 L 806 512.5 L 807.5 511 Z " /><path fill="rgb(17,87,143)" stroke="rgb(17,87,143)" stroke-width="1" opacity="0.9529411764705882" d="M 551.5 517 Q 556 516 557 518.5 L 559 527.5 L 559 538.5 L 555.5 545 Q 550.3 546.3 549 543.5 L 548 522.5 L 551.5 517 Z " /><path fill="rgb(17,87,143)" stroke="rgb(17,87,143)" stroke-width="1" opacity="0.9529411764705882" d="M 834.5 521 Q 840 520 841 523.5 L 841 553.5 L 837.5 557 Q 831.8 557.8 831 553.5 L 830 551.5 L 830 525.5 L 832.5 522 L 834.5 521 Z " /><path fill="rgb(17,87,143)" stroke="rgb(17,87,143)" stroke-width="1" opacity="0.9529411764705882" d="M 662.5 534 L 698.5 534 L 708.5 536 L 718.5 536 Q 720 538.5 725.5 537 L 729.5 539 L 741.5 540 L 744.5 542 L 755.5 543 L 758.5 545 L 767.5 546 L 778.5 550 Q 788.4 556.1 801.5 559 L 838.5 578 L 863.5 594 L 904 625 Q 902.9 627.7 905.5 627 L 919 638 Q 917.9 640.7 920.5 640 L 932.5 648 L 940.5 648 Q 951.8 644.3 958 635.5 Q 968.5 618.9 982.5 606 Q 1002.7 587.7 1027.5 574 L 1049.5 565 L 1061.5 562 L 1069.5 562 L 1074 565.5 L 1075 580.5 Q 1063.9 639.9 1027.5 674 Q 1018 683.3 1006 689 L 1009.5 694 L 1012.5 696 L 1027 707 Q 1025.9 709.7 1028.5 709 L 1031.5 713 Q 1033.8 712.3 1033 714.5 L 1046 729.5 L 1061 756.5 L 1070 781.5 L 1071 789.5 L 1073 793.5 L 1075 811.5 Q 1072.5 813 1074 818.5 L 1071.5 821 L 1062.5 822 L 1047.5 818 L 1026.5 809 L 1002.5 794 L 990 784 Q 991.1 781.3 988.5 782 Q 969.3 764.9 955 744 L 945.5 737 Q 940.4 734.6 931.5 736 L 917.5 744 Q 890 769 858.5 790 L 821.5 812 L 801.5 821 L 773.5 831 L 769.5 831 L 749.5 837 L 737.5 838 L 732.5 840 L 723.5 840 L 722.5 841 L 673.5 841 L 672.5 840 L 661.5 840 L 656.5 838 L 649.5 838 Q 648 835.5 642.5 837 L 638.5 835 L 628.5 834 L 625.5 832 L 616.5 831 L 579.5 818 L 536.5 796 L 492 765 L 490.5 762 L 467 743 L 465.5 740 Q 463.3 740.8 464 738.5 L 460 735.5 Q 460.8 733.3 458.5 734 L 457 731 L 454 729.5 L 423 692.5 L 420 687.5 L 419 680.5 L 428 665.5 L 452 639.5 L 452 638 L 455 636.5 L 456.5 634 L 459.5 632 Q 479.7 610.2 504.5 593 L 532.5 575 L 536.5 574 L 559.5 561 L 599.5 546 L 608.5 545 L 611.5 543 L 620.5 542 L 623.5 540 L 633.5 539 L 637.5 537 L 655.5 536 L 662.5 534 Z M 661 570 L 654 572 L 638 573 L 629 576 L 625 576 L 592 586 L 557 602 L 517 628 L 514 632 L 505 640 L 500 642 L 499 646 L 496 647 L 494 651 L 490 653 L 487 657 L 482 659 L 479 664 Q 475 663 476 667 L 472 670 L 469 675 L 466 676 L 463 680 Q 464 682 461 681 L 464 688 L 468 690 L 470 695 L 473 696 L 475 700 L 479 702 L 480 705 L 485 708 L 487 712 L 491 714 L 493 718 L 497 720 Q 499 719 498 722 L 521 741 L 543 756 L 584 778 L 589 779 L 607 788 L 614 789 L 616 791 L 625 792 L 641 797 L 670 802 L 713 802 L 714 801 L 724 801 L 761 794 L 781 786 L 787 785 L 826 766 L 904 713 L 949 688 L 942 685 L 934 685 L 895 699 L 890 699 L 879 702 L 866 702 L 865 703 L 841 702 L 832 699 L 827 699 L 810 693 L 786 680 L 737 643 L 720 633 L 706 627 L 678 620 L 670 621 L 680 638 L 686 658 L 686 690 L 684 694 L 683 702 L 677 717 L 667 733 L 666 735 L 674 735 L 685 732 L 707 722 L 740 697 L 753 690 L 758 691 L 760 695 L 760 706 L 756 719 L 742 740 Q 739 739 740 742 L 738 743 L 736 746 Q 727 754 714 759 L 690 765 L 657 765 L 649 763 L 628 762 L 619 759 L 615 756 L 615 751 L 633 727 L 643 707 Q 643 700 646 697 L 647 680 L 648 679 L 648 664 L 647 663 L 646 650 L 637 628 L 627 613 Q 628 610 625 611 L 620 603 L 621 600 L 627 596 L 632 596 L 644 593 L 690 593 L 700 596 L 709 597 L 739 606 L 758 616 L 771 625 Q 773 624 772 627 L 776 628 L 804 649 L 822 659 L 848 668 L 857 669 L 862 671 L 892 671 L 895 669 L 903 668 L 902 664 Q 896 665 894 661 L 858 633 L 816 605 L 796 595 L 777 588 L 775 586 L 743 576 L 738 576 L 727 573 L 712 572 L 706 570 L 661 570 Z " /><path fill="rgb(17,87,143)" stroke="rgb(17,87,143)" stroke-width="1" opacity="0.9529411764705882" d="M 525.5 540 L 531 542.5 L 532 553.5 L 528.5 558 L 523 557 Q 520.3 554.4 521 547.5 L 522 543.5 L 525.5 540 Z " /><path fill="rgb(17,87,143)" stroke="rgb(17,87,143)" stroke-width="1" opacity="0.9529411764705882" d="M 858.5 549 Q 864 548 865 551.5 L 866 563.5 L 863.5 567 Q 856.5 568.5 857 565.5 Q 853 562 855 552.5 L 858.5 549 Z " /><path fill="rgb(17,87,143)" stroke="rgb(17,87,143)" stroke-width="1" opacity="0.9529411764705882" d="M 555.5 638 Q 572.9 638.1 580 648.5 Q 585.6 653.9 586 664.5 L 583 676.5 L 579 683 L 569.5 689 L 553.5 690 Q 544.1 687.9 539 681.5 Q 532.7 676.3 533 664.5 Q 535.5 663 534 657.5 L 537 651.5 L 543.5 644 L 555.5 638 Z " /><path fill="rgb(17,87,143)" stroke="rgb(17,87,143)" stroke-width="1" opacity="0.9529411764705882" d="M 634.5 909 L 642.5 909 L 651 911 L 650 913.5 L 650.5 915 Q 647.9 914.2 649 917.5 L 648 920 L 669.5 920 L 670.5 921 L 703.5 921 L 706 922 L 707 927.5 L 704 937.5 L 699.5 942 L 696 943.5 Q 696.8 945.8 694.5 945 L 693 949 L 722.5 949 L 724 950.5 L 723 955.5 L 724 956.5 L 724 1020.5 L 716.5 1029 L 713.5 1030 L 634.5 1030 L 633.5 1029 L 602 1028.5 L 602.5 1027 Q 599.8 1027.6 601 1021.5 L 601 1019.5 L 600 1014.5 L 600 993.5 L 601 992.5 L 601 967.5 L 600 962 Q 592.9 961.3 589 964 Q 585.5 960.7 587 952 L 592.5 950 L 609 935.5 L 628.5 911 L 634.5 909 Z M 657 937 L 656 938 L 636 938 Q 627 940 623 946 L 623 949 L 665 949 Q 672 947 676 942 L 675 939 L 672 938 L 657 937 Z M 624 966 L 624 980 L 626 981 L 650 981 L 650 968 L 648 967 L 646 967 L 645 966 L 624 966 Z M 673 967 L 673 980 L 680 981 L 701 981 L 701 967 L 673 967 Z M 626 997 Q 622 1001 623 1011 L 625 1012 L 650 1012 Q 652 1008 651 1000 L 648 997 L 626 997 Z M 692 997 L 691 998 L 673 998 L 673 1011 L 675 1012 L 700 1012 L 701 1010 L 701 998 L 692 997 Z " /><path fill="rgb(17,87,143)" stroke="rgb(17,87,143)" stroke-width="1" opacity="0.9529411764705882" d="M 827.5 909 Q 836.9 907.1 840 911.5 L 839 913.5 L 841 914 L 841 926.5 L 840 928.5 L 842.5 931 L 889.5 931 L 891 932.5 L 891 947.5 L 889.5 949 L 884.5 948 L 883.5 949 L 841.5 949 L 840 950.5 L 840 976 L 869.5 976 L 870.5 975 L 897.5 975 L 903 977.5 L 903 991.5 L 901.5 993 L 897.5 994 L 862.5 994 L 861 995.5 L 860 998.5 L 860 1038.5 L 861.5 1042 L 863.5 1042 L 875.5 1043 L 883 1039.5 L 884 1029.5 L 886 1025 L 898.5 1025 L 904 1024 L 903 1046.5 L 897.5 1056 L 892.5 1059 L 887.5 1060 L 857.5 1060 L 856.5 1059 L 847.5 1059 L 839 1052.5 L 837 1047.5 L 837 998.5 L 836 994 Q 830.5 991.7 819.5 993 L 816 994 L 815 1007.5 Q 812 1010.5 812 1016.5 L 806 1029.5 L 795.5 1043 L 776.5 1056 L 767.5 1059 L 760 1059 L 759.5 1061 L 757.5 1060 L 753 1061 Q 750.9 1048.3 759.5 1045 Q 769.3 1040.8 776 1033.5 L 785 1021.5 L 787 1016.5 L 791 1003.5 L 791 994 Q 787.1 991.6 777.5 993 L 776.5 994 L 766.5 994 L 765.5 993 L 753 993 Q 750.6 989.1 752 979.5 L 753 975 L 802.5 976 L 803.5 975 L 816 975 Q 818.1 971.7 817 963.5 L 816 962.5 L 816 950.5 L 814.5 949 L 792.5 949 L 787 951.5 L 774.5 967 L 757.5 967 L 757 964.5 L 768 945.5 L 769 938.5 Q 774 931.5 775 920.5 L 777.5 917 Q 783.2 917.7 785.5 915 L 797 915 L 797 922.5 L 795 931 L 816 931 L 816 912.5 L 820.5 910 Q 826 911.5 827.5 909 Z " /><path fill="rgb(17,87,143)" stroke="rgb(17,87,143)" stroke-width="1" opacity="0.9529411764705882" d="M 936.5 910 L 949.5 910 L 952 911 L 951 926 L 956.5 927 L 970.5 927 Q 972.2 924.2 978.5 926 L 979.5 927 L 987.5 927 L 989 928.5 L 988.5 942 L 986.5 942 L 971.5 943 L 969 944 L 968 947.5 L 970 948 L 969 972.5 L 970.5 974 L 989.5 974 L 992 975 L 991.5 990 L 990.5 988 L 990 991 L 970.5 991 L 968 992 L 973 1004.5 L 988 1031.5 L 992 1044.5 L 992 1050.5 L 991.5 1053 L 976.5 1053 L 974 1050.5 Q 969.6 1033.9 959.5 1023 Q 949.9 1043.9 933.5 1058 L 929.5 1060 L 927.5 1060 L 921.5 1059 L 918.5 1060 L 917 1057.5 L 936 1023.5 L 945 992.5 L 943.5 991 L 919 991 L 918.5 989 L 917 989.5 L 917 974 L 926.5 974 Q 928.3 971.2 934.5 973 L 935.5 974 L 946 974 L 946 943.5 L 944.5 943 L 933.5 957 L 931.5 958 L 929.5 958 L 916 961 L 917 954.5 L 927 934.5 L 928 924.5 L 932 911 L 936.5 910 Z " /><path fill="rgb(17,87,143)" stroke="rgb(17,87,143)" stroke-width="1" opacity="0.9529411764705882" d="M 453.5 911 L 469.5 911 L 470 912.5 L 472.5 918 L 491.5 918 L 496 920.5 L 494 930 L 474.5 930 L 472 932.5 L 473.5 934 L 490.5 934 L 492 935.5 L 492 945.5 L 490.5 947 Q 489.1 944.4 484.5 945 L 483.5 946 L 473.5 946 L 472 947.5 L 472 951 L 480.5 951 L 481.5 950 L 492.5 949 Q 496.5 951.8 495 959 L 498 957.5 L 499.5 954 L 501 953.5 Q 498.7 952.3 501.5 951 L 518.5 951 L 520 949.5 L 518.5 947 L 501.5 947 L 501 945.5 L 500 944.5 L 500 936.5 L 501.5 935 L 517.5 935 L 520 934 L 520 930 L 518.5 930 L 516.5 930 L 501.5 930 L 499 927.5 L 499 920.5 L 501.5 920 L 504.5 918 L 517.5 918 L 520 917 L 521 913 Q 528.6 909.3 542 911 Q 541.2 916 544.5 918 L 566.5 918 L 568 919.5 L 568 927.5 L 566.5 928 L 566.5 930 L 546.5 930 L 544 931 L 544.5 933 L 561.5 933 Q 565.9 936.1 564 945.5 L 562.5 947 L 550.5 947 L 545.5 945 Q 541.8 946.5 543 952 L 567 951 L 566 953.5 Q 568.8 955.2 567 961.5 L 566 964 L 560.5 963 L 559.5 964 L 544.5 964 L 543 965.5 Q 542.3 969.3 544.5 970 L 550.5 971 Q 551.7 968.8 556.5 970 L 558 971.5 Q 556.3 977.8 559 979.5 L 559 1010.5 L 553.5 1018 L 548.5 1018 L 542.5 1020 L 530.5 1020 L 529.5 1019 L 504.5 1018 L 501.5 1019 L 500.5 1018 L 492.5 1018 Q 490.2 1020.7 484.5 1020 L 475.5 1018 L 458.5 1018 L 457.5 1017 L 455.5 1018 L 454.5 1017 L 439.5 1017 Q 438.3 1020.3 432.5 1019 L 431 1017.5 L 431 1008.5 L 432.5 1007 Q 437.3 1008.3 438.5 1006 L 536 1006 L 536 1000.5 L 535.5 1000 L 438.5 1000 Q 434.5 998.5 436 991.5 L 438.5 989 L 453.5 988 L 454.5 989 L 482.5 989 L 483.5 988 L 498.5 988 L 499.5 989 L 518.5 989 Q 520 986.5 525.5 988 L 526.5 989 L 534.5 989 L 536 985.5 L 534.5 984 L 498.5 984 Q 495.6 980.4 487.5 982 L 486.5 983 L 440.5 983 L 438.5 981 Q 434 982 433 979.5 L 432 974.5 L 434.5 971 L 447.5 971 L 449 969.5 Q 450 965 447.5 964 L 438.5 963 L 437.5 964 L 426.5 964 Q 421.5 962.5 423 954.5 L 427.5 950 L 448 950 L 447.5 947 L 438.5 947 L 435.5 948 Q 430.8 948.8 429 946.5 L 429.5 945 L 427 943.5 L 428 934 L 447.5 934 L 448 931 L 444.5 930 L 428.5 930 Q 426.8 932.8 425 928.5 L 425 920.5 L 426.5 919 L 448 917 L 450 912 L 453.5 911 Z M 560 928 L 560 929 L 564 929 L 560 928 Z M 547 953 L 547 954 L 551 954 L 547 953 Z M 501 962 L 497 964 L 495 963 L 494 964 L 476 964 L 472 967 Q 470 972 477 970 L 479 970 L 481 971 L 484 970 L 499 970 L 500 971 Q 505 973 507 970 L 515 970 L 516 971 Q 519 972 520 970 L 519 964 L 507 964 Q 505 961 501 962 Z " /><path fill="rgb(17,87,143)" stroke="rgb(17,87,143)" stroke-width="1" opacity="0.9529411764705882" d="M 1015.5 922 L 1061.5 922 L 1063 923.5 L 1063 1023.5 L 1064 1024.5 L 1064 1053 L 1060.5 1054 L 1005.5 1054 L 1004.5 1053 L 996 1053 L 996 990.5 L 995 987.5 L 996 986.5 L 996 928.5 L 998.5 924 Q 1004.4 921.4 1014.5 923 L 1015.5 922 Z M 1022 940 L 1020 941 L 1018 943 L 1018 1035 L 1020 1036 Q 1026 1035 1029 1038 L 1040 1035 L 1041 1035 L 1041 941 L 1039 940 L 1022 940 Z " /><path fill="rgb(17,87,143)" stroke="rgb(17,87,143)" stroke-width="1" opacity="0.9529411764705882" d="M 493.5 1020 Q 498.6 1022.4 507.5 1021 L 514 1026.5 L 518 1037.5 L 516 1042 L 506.5 1040 L 499.5 1040 L 498 1038.5 L 498.5 1037 L 495 1034.5 L 489 1023.5 L 489 1021 L 493.5 1020 Z " /><path fill="rgb(17,87,143)" stroke="rgb(17,87,143)" stroke-width="1" opacity="0.9529411764705882" d="M 435 1022 L 441.5 1024 Q 444.8 1020.2 453 1022 Q 450.5 1042.2 440.5 1056 L 420.5 1056 L 420 1053.5 L 429 1037.5 L 432 1027.5 L 435 1022 Z " /><path fill="rgb(17,87,143)" stroke="rgb(17,87,143)" stroke-width="1" opacity="0.9529411764705882" d="M 457.5 1022 L 478.5 1023 L 480 1024.5 L 481 1026.5 L 481 1042.5 L 482 1045 L 494.5 1046 L 495.5 1045 L 516.5 1045 L 519 1044 L 522 1034 L 539.5 1034 L 541 1035.5 L 541 1049.5 L 534.5 1058 L 523.5 1061 L 479.5 1061 L 478.5 1060 L 465.5 1059 L 459 1053.5 L 457 1049.5 L 456 1039.5 L 457 1038.5 L 457 1027.5 L 456 1023.5 L 457.5 1022 Z " /><path fill="rgb(17,87,143)" stroke="rgb(17,87,143)" stroke-width="1" opacity="0.9529411764705882" d="M 541 1023 L 558.5 1024 L 561 1026.5 L 563 1029.5 L 562.5 1031 Q 564.8 1030.3 564 1032.5 L 570 1043.5 L 573 1055 L 567.5 1056 L 552 1056 L 546 1037.5 Q 541.8 1034.7 541 1028.5 L 542 1025.5 L 540 1025.5 L 541 1023 Z " /><path fill="rgb(17,87,143)" stroke="rgb(17,87,143)" stroke-width="1" opacity="0.9529411764705882" d="M 617.5 1039 L 714.5 1039 L 715.5 1040 L 736.5 1040 L 738 1041.5 L 739 1055.5 L 735.5 1057 L 710.5 1057 L 709.5 1058 L 622.5 1058 L 621.5 1057 L 592.5 1057 L 587 1056 L 587 1040 L 616.5 1040 L 617.5 1039 Z " /><path fill="rgb(0,0,0)" stroke="rgb(0,0,0)" stroke-width="1" opacity="0" d="M 0 0 L 1500 0 L 1500 1500 L 0 1500 L 0 0 Z M 680 427 L 677 431 L 676 436 L 676 445 L 677 446 L 677 470 L 676 471 L 677 515 L 682 518 L 686 517 L 688 513 L 688 458 L 689 457 L 689 435 L 687 429 Q 686 426 680 427 Z M 782 448 L 779 451 L 779 465 L 780 466 L 781 477 Q 782 479 789 478 L 791 473 L 791 455 L 790 450 Q 788 446 782 448 Z M 605 449 L 603 450 L 600 453 L 599 457 L 599 492 L 600 495 Q 602 497 609 496 L 610 495 L 610 452 Q 609 448 605 449 Z M 708 451 L 706 452 L 703 455 L 703 517 L 707 519 L 713 518 L 714 517 L 714 495 L 715 494 L 714 454 Q 713 450 708 451 Z M 656 455 L 651 459 Q 650 463 653 464 L 658 463 L 660 459 L 656 455 Z M 759 456 L 753 460 L 754 465 L 756 466 L 763 466 L 764 460 L 759 456 Z M 654 472 L 650 476 L 650 514 Q 651 518 658 517 L 660 515 L 660 507 L 661 506 L 661 479 L 660 475 Q 659 471 654 472 Z M 733 474 L 731 475 L 728 478 L 728 519 Q 730 523 737 521 L 739 519 L 739 504 L 740 503 L 740 486 L 738 477 L 733 474 Z M 758 483 L 754 487 L 754 525 Q 756 528 762 527 L 764 524 Q 763 518 765 517 L 765 503 L 764 502 L 764 488 L 763 486 L 758 483 Z M 784 483 L 783 484 L 781 485 L 781 492 L 787 493 L 790 489 L 789 485 Q 788 482 784 483 Z M 629 485 L 627 486 L 624 490 L 624 518 L 627 521 Q 634 523 635 519 L 635 499 L 634 498 L 634 488 L 633 487 Q 634 483 629 485 Z M 578 486 L 576 487 L 574 489 Q 576 495 573 497 Q 571 503 574 505 L 574 533 L 575 535 Q 576 537 582 536 L 585 531 L 585 505 L 586 504 L 584 489 Q 583 485 578 486 Z M 784 499 L 780 504 L 780 532 Q 781 536 788 535 L 790 532 L 790 502 Q 789 498 784 499 Z M 603 502 L 600 503 L 599 506 L 599 525 L 603 528 L 609 527 L 610 525 L 610 514 L 608 504 Q 607 501 603 502 Z M 808 511 L 806 513 L 806 522 L 805 523 L 805 539 L 806 542 Q 806 545 812 545 L 815 540 L 815 513 Q 813 510 808 511 Z M 552 517 L 548 523 L 549 544 Q 550 546 556 545 L 559 539 L 559 528 L 557 519 Q 556 516 552 517 Z M 835 521 L 833 522 L 830 526 L 830 552 L 831 554 Q 832 558 838 557 L 841 554 L 841 524 Q 840 520 835 521 Z M 663 534 L 656 536 L 638 537 L 634 539 L 624 540 L 621 542 L 612 543 L 609 545 L 600 546 L 560 561 L 537 574 L 533 575 L 505 593 Q 480 610 460 632 L 457 634 L 455 637 L 452 638 L 452 640 L 428 666 L 419 681 L 420 688 L 423 693 L 454 730 L 457 731 L 459 734 Q 461 733 460 736 L 464 739 Q 463 741 466 740 L 467 743 L 491 762 L 492 765 L 537 796 L 580 818 L 617 831 L 626 832 L 629 834 L 639 835 L 643 837 Q 648 836 650 838 L 657 838 L 662 840 L 673 840 L 674 841 L 723 841 L 724 840 L 733 840 L 738 838 L 750 837 L 770 831 L 774 831 L 802 821 L 822 812 L 859 790 Q 890 769 918 744 L 932 736 Q 940 735 946 737 L 955 744 Q 969 765 989 782 Q 991 781 990 784 L 1003 794 L 1027 809 L 1048 818 L 1063 822 L 1072 821 L 1074 819 Q 1073 813 1075 812 L 1073 794 L 1071 790 L 1070 782 L 1061 757 L 1046 730 L 1033 715 Q 1034 712 1032 713 L 1029 709 Q 1026 710 1027 707 L 1013 696 L 1010 694 L 1006 689 Q 1018 683 1028 674 Q 1064 640 1075 581 L 1074 566 L 1070 562 L 1062 562 L 1050 565 L 1028 574 Q 1003 588 983 606 Q 968 619 958 636 Q 952 644 941 648 L 933 648 L 921 640 Q 918 641 919 638 L 906 627 Q 903 628 904 625 L 864 594 L 839 578 L 802 559 Q 788 556 779 550 L 768 546 L 759 545 L 756 543 L 745 542 L 742 540 L 730 539 L 726 537 Q 720 539 719 536 L 709 536 L 699 534 L 663 534 Z M 526 540 L 522 544 L 521 548 Q 520 554 523 557 L 529 558 L 532 554 L 531 543 L 526 540 Z M 859 549 L 855 553 Q 853 562 857 566 Q 857 569 864 567 L 866 564 L 865 552 Q 864 548 859 549 Z M 635 909 L 629 911 L 609 936 L 593 950 L 587 952 L 587 961 L 589 963 Q 588 965 591 964 L 590 963 L 592 963 L 600 962 L 601 968 L 601 993 L 600 994 L 600 1015 L 601 1020 L 601 1022 Q 600 1028 603 1027 L 602 1029 L 634 1029 L 635 1030 L 714 1030 L 717 1029 L 724 1021 L 724 957 L 723 956 L 724 951 L 723 949 L 693 949 L 695 945 Q 697 946 696 944 L 700 942 L 704 938 L 707 928 L 706 922 L 704 921 L 671 921 L 670 920 L 648 920 L 649 918 Q 648 914 651 915 L 650 914 L 651 911 L 643 909 L 635 909 Z M 828 909 Q 826 912 821 910 L 816 913 L 816 931 L 795 931 L 797 923 L 797 915 L 786 915 Q 783 918 778 917 L 775 921 Q 774 932 769 939 L 768 946 L 757 965 L 758 967 L 775 967 L 779 962 L 779 960 L 781 960 L 787 952 L 793 949 L 815 949 L 816 951 L 816 963 L 817 964 Q 818 972 816 975 L 804 975 L 803 976 L 753 975 L 752 980 Q 751 989 753 993 L 766 993 L 767 994 L 777 994 L 778 993 Q 787 992 791 994 L 791 1004 L 787 1017 L 785 1022 L 776 1034 Q 769 1041 760 1045 Q 751 1048 753 1061 L 758 1060 L 760 1061 L 760 1059 L 768 1059 L 777 1056 L 796 1043 L 806 1030 L 812 1017 Q 812 1010 815 1008 L 816 994 L 820 993 Q 830 992 836 994 L 837 999 L 837 1048 L 839 1053 L 848 1059 L 857 1059 L 858 1060 L 888 1060 L 893 1059 L 898 1056 L 903 1047 L 904 1024 L 899 1025 L 886 1025 L 884 1030 L 883 1040 L 876 1043 L 864 1042 L 862 1042 L 860 1039 L 860 999 L 861 996 L 863 994 L 898 994 L 902 993 L 903 992 L 903 978 L 898 975 L 871 975 L 870 976 L 840 976 L 840 951 L 842 949 L 884 949 L 885 948 L 890 949 L 891 948 L 891 933 L 890 931 L 843 931 L 840 929 L 841 927 L 841 914 L 839 914 L 840 912 Q 837 907 828 909 Z M 937 910 L 932 911 L 928 925 L 927 935 L 917 955 L 916 961 L 930 958 L 932 958 L 934 957 L 945 943 L 946 944 L 946 974 L 936 974 L 935 973 Q 928 971 927 974 L 917 974 L 917 990 L 919 989 L 919 991 L 944 991 L 945 993 L 936 1024 L 917 1058 L 919 1060 L 922 1059 L 928 1060 L 930 1060 L 934 1058 Q 950 1044 960 1023 Q 970 1034 974 1051 L 977 1053 L 992 1053 L 992 1051 L 992 1045 L 988 1032 L 973 1005 L 968 992 L 971 991 L 990 991 L 991 988 L 992 990 L 992 975 L 990 974 L 971 974 L 969 973 L 970 948 L 968 948 L 969 944 L 972 943 L 987 942 L 989 942 L 989 929 L 988 927 L 980 927 L 979 926 Q 972 924 971 927 L 957 927 L 951 926 L 952 911 L 950 910 L 937 910 Z M 454 911 L 450 912 L 448 917 L 427 919 L 425 921 L 425 929 Q 427 933 429 930 L 445 930 L 448 931 L 448 934 L 428 934 L 427 944 L 430 945 L 429 947 Q 431 949 436 948 L 439 947 L 448 947 L 448 950 L 428 950 L 423 955 Q 421 963 427 964 L 438 964 L 439 963 L 448 964 Q 450 965 449 970 L 448 971 L 435 971 L 432 975 L 433 980 Q 434 982 439 981 L 441 983 L 487 983 L 488 982 Q 496 980 499 984 L 535 984 L 536 986 L 535 989 L 527 989 L 526 988 Q 520 987 519 989 L 500 989 L 499 988 L 484 988 L 483 989 L 455 989 L 454 988 L 439 989 L 436 992 Q 435 999 439 1000 L 536 1000 L 536 1001 L 536 1006 L 439 1006 Q 437 1008 433 1007 L 431 1009 L 431 1018 L 433 1019 Q 438 1020 440 1017 L 455 1017 L 456 1018 L 458 1017 L 459 1018 L 476 1018 L 485 1020 Q 490 1021 493 1018 L 501 1018 L 502 1019 L 505 1018 L 530 1019 L 531 1020 L 543 1020 L 549 1018 L 554 1018 L 559 1011 L 559 980 Q 556 978 558 972 L 557 970 Q 552 969 551 971 L 545 970 Q 542 969 543 966 L 545 964 L 560 964 L 561 963 L 566 964 L 567 962 Q 569 955 566 954 L 567 951 L 543 952 Q 542 947 546 945 Q 551 949 563 947 L 562 946 L 564 946 L 564 937 L 563 937 L 563 936 L 562 933 L 545 933 L 544 931 L 547 930 L 567 930 L 567 928 L 568 928 L 568 920 L 567 918 L 545 918 Q 541 916 542 911 Q 529 909 521 913 L 520 917 L 518 918 L 505 918 L 502 920 L 499 921 L 499 928 Q 500 930 502 928 L 501 930 L 517 930 L 519 930 L 520 930 L 520 934 L 518 935 L 502 935 L 500 937 L 500 945 L 501 946 L 502 947 L 519 947 L 520 950 L 519 951 L 502 951 Q 499 952 501 954 L 500 954 L 498 958 L 495 959 Q 496 952 493 949 L 482 950 L 481 951 L 472 951 L 472 948 L 474 946 L 484 946 L 485 945 Q 489 944 491 947 L 490 946 L 492 946 L 492 936 L 491 934 L 474 934 L 472 933 L 475 930 L 494 930 L 496 921 L 492 918 L 473 918 L 470 913 L 470 911 L 454 911 Z M 1016 922 L 1015 923 Q 1004 921 999 924 L 996 929 L 996 987 L 995 988 L 996 991 L 996 1053 L 1005 1053 L 1006 1054 L 1061 1054 L 1064 1053 L 1064 1025 L 1063 1024 L 1063 924 L 1062 922 L 1016 922 Z M 494 1020 L 489 1021 L 489 1024 L 495 1035 L 499 1037 Q 501 1038 499 1040 L 516 1042 L 518 1038 L 514 1027 L 511 1023 L 510 1024 L 510 1023 L 508 1021 Q 499 1022 494 1020 Z M 435 1022 L 432 1028 L 429 1038 L 420 1054 L 421 1056 L 441 1056 Q 450 1042 453 1022 Q 445 1020 442 1024 L 435 1022 Z M 458 1022 L 456 1024 L 457 1028 L 457 1039 L 456 1040 L 457 1050 L 459 1054 L 466 1059 L 479 1060 L 480 1061 L 524 1061 L 535 1058 L 541 1050 L 541 1036 L 540 1034 L 522 1034 L 519 1044 L 517 1045 L 496 1045 L 495 1046 L 482 1045 L 481 1043 L 481 1027 L 480 1025 L 479 1023 L 458 1022 Z M 541 1023 L 542 1026 L 541 1029 L 545 1037 L 547 1036 L 546 1038 L 552 1056 L 568 1056 L 573 1055 L 570 1044 L 564 1033 Q 565 1030 563 1031 L 563 1030 L 561 1027 L 560 1027 L 560 1026 L 559 1024 L 541 1023 Z M 618 1039 L 617 1040 L 587 1040 L 587 1056 L 593 1057 L 622 1057 L 623 1058 L 710 1058 L 711 1057 L 736 1057 L 739 1056 L 738 1042 L 737 1040 L 716 1040 L 715 1039 L 618 1039 Z " /><path fill="rgb(0,0,0)" stroke="rgb(0,0,0)" stroke-width="1" opacity="0" d="M 660.5 570 L 705.5 570 L 711.5 572 L 726.5 573 L 737.5 576 L 742.5 576 L 774.5 586 L 776.5 588 L 795.5 595 L 815.5 605 L 857.5 633 L 893.5 661 Q 896.3 664.8 902 664 L 903 668 L 894.5 669 L 891.5 671 L 861.5 671 L 856.5 669 L 847.5 668 L 821.5 659 L 803.5 649 L 775.5 628 L 772 627 Q 773.1 624.3 770.5 625 L 757.5 616 L 738.5 606 L 708.5 597 L 699.5 596 L 689.5 593 L 643.5 593 L 631.5 596 L 626.5 596 L 621 599.5 L 620 602.5 L 625 611 Q 627.7 609.9 627 612.5 L 637 627.5 L 646 649.5 L 647 662.5 L 648 663.5 L 648 678.5 L 647 679.5 L 646 696.5 Q 642.7 699.7 643 706.5 L 633 726.5 L 615 750.5 L 615 755.5 L 618.5 759 L 627.5 762 L 648.5 763 L 656.5 765 L 689.5 765 L 713.5 759 Q 726.5 753.7 736 746 L 737.5 743 L 740 741.5 Q 739.3 739.3 741.5 740 L 756 718.5 L 760 705.5 L 760 694.5 L 757.5 691 L 752.5 690 L 739.5 697 L 706.5 722 L 684.5 732 L 673.5 735 L 665.5 735 L 667 732.5 L 677 716.5 L 683 701.5 L 684 693.5 L 686 689.5 L 686 657.5 L 680 637.5 L 670 620.5 L 677.5 620 L 705.5 627 L 719.5 633 L 736.5 643 L 785.5 680 L 809.5 693 L 826.5 699 L 831.5 699 L 840.5 702 L 864.5 703 L 865.5 702 L 878.5 702 L 889.5 699 L 894.5 699 L 933.5 685 L 941.5 685 L 949 687.5 L 903.5 713 L 825.5 766 L 786.5 785 L 780.5 786 L 760.5 794 L 723.5 801 L 713.5 801 L 712.5 802 L 669.5 802 L 640.5 797 L 624.5 792 L 615.5 791 L 613.5 789 L 606.5 788 L 588.5 779 L 583.5 778 L 542.5 756 L 520.5 741 L 498 721.5 Q 498.8 719.3 496.5 720 L 493 717.5 L 490.5 714 L 487 711.5 L 484.5 708 L 480 704.5 L 478.5 702 L 475 699.5 L 472.5 696 L 470 694.5 L 467.5 690 L 464 687.5 L 461 681 Q 463.7 682.1 463 679.5 L 465.5 676 L 469 675 L 471.5 670 L 476 666.5 Q 474.8 662.8 478.5 664 L 482 659 L 487 657 L 489.5 653 L 494 651 L 495.5 647 L 499 646 L 500 642 L 504.5 640 L 514 631.5 L 516.5 628 L 556.5 602 L 591.5 586 L 624.5 576 L 628.5 576 L 637.5 573 L 653.5 572 L 660.5 570 Z M 556 638 L 544 644 L 537 652 L 534 658 Q 536 663 533 665 Q 533 676 539 682 Q 544 688 554 690 L 570 689 L 579 683 L 583 677 L 586 665 Q 586 654 580 649 Q 573 638 556 638 Z " /><path fill="rgb(0,0,0)" stroke="rgb(0,0,0)" stroke-width="1" opacity="0" d="M 559.5 928 L 564 928.5 L 559.5 929 L 559.5 928 Z " /><path fill="rgb(0,0,0)" stroke="rgb(0,0,0)" stroke-width="1" opacity="0" d="M 656.5 937 L 671.5 938 L 675 939 L 676 941.5 Q 671.8 946.8 664.5 949 L 622.5 949 L 622.5 946 Q 627.4 940.4 635.5 938 L 655.5 938 L 656.5 937 Z " /><path fill="rgb(0,0,0)" stroke="rgb(0,0,0)" stroke-width="1" opacity="0" d="M 1021.5 940 L 1038.5 940 L 1041 941 L 1041 1034.5 L 1039.5 1035 L 1028.5 1038 Q 1025.8 1035.2 1019.5 1036 L 1018 1034.5 L 1018 942.5 L 1019.5 941 L 1021.5 940 Z " /><path fill="rgb(0,0,0)" stroke="rgb(0,0,0)" stroke-width="1" opacity="0" d="M 546.5 953 L 551 953.5 L 546.5 954 L 546.5 953 Z " /><path fill="rgb(0,0,0)" stroke="rgb(0,0,0)" stroke-width="1" opacity="0" d="M 500.5 962 Q 505.1 961.4 506.5 964 L 519 964 L 520 969.5 Q 519.3 971.8 515.5 971 L 514.5 970 L 506.5 970 Q 505 972.5 499.5 971 L 498.5 970 L 483.5 970 L 480.5 971 L 478.5 970 L 476.5 970 Q 470.2 972.2 472 966.5 L 475.5 964 L 493.5 964 L 494.5 963 L 496.5 964 L 500.5 962 Z " /><path fill="rgb(0,0,0)" stroke="rgb(0,0,0)" stroke-width="1" opacity="0" d="M 624 966 L 644.5 966 L 645.5 967 L 647.5 967 L 650 967.5 L 650 981 L 625.5 981 L 624 979.5 L 624 966 Z " /><path fill="rgb(0,0,0)" stroke="rgb(0,0,0)" stroke-width="1" opacity="0" d="M 673 967 L 701 967 L 701 981 L 679.5 981 L 673 980 L 673 967 Z " /><path fill="rgb(0,0,0)" stroke="rgb(0,0,0)" stroke-width="1" opacity="0" d="M 625.5 997 L 647.5 997 L 651 999.5 Q 651.7 1007.5 650 1012 L 624.5 1012 L 623 1010.5 Q 621.8 1001.3 625.5 997 Z " /><path fill="rgb(0,0,0)" stroke="rgb(0,0,0)" stroke-width="1" opacity="0" d="M 691.5 997 L 701 998 L 701 1009.5 L 700 1012 L 674.5 1012 L 673 1010.5 L 673 998 L 690.5 998 L 691.5 997 Z " /></svg>